<svg xmlns="http://www.w3.org/2000/svg" xmlns:xlink="http://www.w3.org/1999/xlink" contentStyleType="text/css" height="205px" preserveAspectRatio="none" style="width:1452px;height:205px;background:#FFFFFF;" version="1.1" viewBox="0 0 1452 205" width="1452px" zoomAndPan="magnify"><defs/><g><!--entity Cliente--><g id="elem_Cliente"><ellipse cx="147.0718" cy="14" fill="#F1F1F1" rx="8" ry="8" style="stroke:#181818;stroke-width:0.5;"/><path d="M147.0718,22 L147.0718,49 M134.0718,30 L160.0718,30 M147.0718,49 L134.0718,64 M147.0718,49 L160.0718,64 " fill="none" style="stroke:#181818;stroke-width:0.5;"/><text fill="#000000" font-family="sans-serif" font-size="14" lengthAdjust="spacing" textLength="49.1436" x="122.5" y="78.4951">Cliente</text></g><!--entity Farmac?utico--><g id="elem_Farmac&#233;utico"><ellipse cx="520.2148" cy="14" fill="#F1F1F1" rx="8" ry="8" style="stroke:#181818;stroke-width:0.5;"/><path d="M520.2148,22 L520.2148,49 M507.2148,30 L533.2148,30 M520.2148,49 L507.2148,64 M520.2148,49 L533.2148,64 " fill="none" style="stroke:#181818;stroke-width:0.5;"/><text fill="#000000" font-family="sans-serif" font-size="14" lengthAdjust="spacing" textLength="95.4297" x="472.5" y="78.4951">Farmac&#233;utico</text></g><!--entity Administrador--><g id="elem_Administrador"><ellipse cx="1110.04" cy="14" fill="#F1F1F1" rx="8" ry="8" style="stroke:#181818;stroke-width:0.5;"/><path d="M1110.04,22 L1110.04,49 M1097.04,30 L1123.04,30 M1110.04,49 L1097.04,64 M1110.04,49 L1123.04,64 " fill="none" style="stroke:#181818;stroke-width:0.5;"/><text fill="#000000" font-family="sans-serif" font-size="14" lengthAdjust="spacing" textLength="99.0801" x="1060.5" y="78.4951">Administrador</text></g><g id="elem_UC1"><ellipse cx="84.9787" cy="179.1957" fill="#F1F1F1" rx="78.9787" ry="18.1957" style="stroke:#181818;stroke-width:0.5;"/><text fill="#000000" font-family="sans-serif" font-size="14" lengthAdjust="spacing" textLength="116.0332" x="24.9023" y="182.6898">Realizar Compra</text></g><g id="elem_UC2"><ellipse cx="336.0451" cy="178.909" fill="#F1F1F1" rx="72.5451" ry="16.909" style="stroke:#181818;stroke-width:0.5;"/><text fill="#000000" font-family="sans-serif" font-size="14" lengthAdjust="spacing" textLength="99.627" x="283.2316" y="182.6566">Procesar Pago</text></g><g id="elem_UC3"><ellipse cx="703.8014" cy="178.8603" fill="#F1F1F1" rx="72.3014" ry="16.8603" style="stroke:#181818;stroke-width:0.5;"/><text fill="#000000" font-family="sans-serif" font-size="14" lengthAdjust="spacing" textLength="98.9844" x="651.3092" y="182.6078">Emitir Factura</text></g><g id="elem_UC4"><ellipse cx="519.8931" cy="179.1786" fill="#F1F1F1" rx="76.3931" ry="17.6786" style="stroke:#181818;stroke-width:0.5;"/><text fill="#000000" font-family="sans-serif" font-size="14" lengthAdjust="spacing" textLength="109.5732" x="462.1065" y="182.9262">Registrar Venta</text></g><g id="elem_UC5"><ellipse cx="1110.1364" cy="178.8273" fill="#F1F1F1" rx="82.1364" ry="18.8273" style="stroke:#181818;stroke-width:0.5;"/><text fill="#000000" font-family="sans-serif" font-size="14" lengthAdjust="spacing" textLength="123.6416" x="1047.4254" y="181.9704">Registrar Compra</text></g><g id="elem_UC6"><ellipse cx="1369.2032" cy="178.9406" fill="#F1F1F1" rx="77.7032" ry="17.9406" style="stroke:#181818;stroke-width:0.5;"/><text fill="#000000" font-family="sans-serif" font-size="14" lengthAdjust="spacing" textLength="112.875" x="1310.1911" y="182.5764">Actualizar Stock</text></g><g id="elem_UC7"><ellipse cx="901.8787" cy="178.9757" fill="#F1F1F1" rx="90.3787" ry="20.4757" style="stroke:#181818;stroke-width:0.5;"/><text fill="#000000" font-family="sans-serif" font-size="14" lengthAdjust="spacing" textLength="142.5977" x="830.5799" y="181.8224">Consultar Inventario</text></g><!--link Cliente to UC1--><g id="link_Cliente_UC1"><path d="M129.73,81.69 C117.69,107.61 102.19,140.99 92.95,160.87 " fill="none" id="Cliente-UC1" style="stroke:#181818;stroke-width:1.0;"/></g><!--link Cliente to UC2--><g id="link_Cliente_UC2"><path d="M171.71,61.95 C208.93,88.24 278.79,137.59 314.22,162.61 " fill="none" id="Cliente-UC2" style="stroke:#181818;stroke-width:1.0;"/></g><!--link Farmac?utico to UC1--><g id="link_Farmac&#233;utico_UC1"><path d="M472.2,59.17 C387.67,85.11 212.94,138.74 130.26,164.11 " fill="none" id="Farmac&#233;utico-UC1" style="stroke:#181818;stroke-width:1.0;"/></g><!--link Farmac?utico to UC2--><g id="link_Farmac&#233;utico_UC2"><path d="M472.35,55.14 C438.64,64.83 394.38,82.21 365,111.5 C351.08,125.37 343.36,147.03 339.45,161.84 " fill="none" id="Farmac&#233;utico-UC2" style="stroke:#181818;stroke-width:1.0;"/></g><!--link Farmac?utico to UC3--><g id="link_Farmac&#233;utico_UC3"><path d="M567.86,79.23 C605.13,106.27 655.06,142.49 682.93,162.71 " fill="none" id="Farmac&#233;utico-UC3" style="stroke:#181818;stroke-width:1.0;"/></g><!--link Farmac?utico to UC4--><g id="link_Farmac&#233;utico_UC4"><path d="M520,81.69 C520,107.76 520,141.39 520,161.23 " fill="none" id="Farmac&#233;utico-UC4" style="stroke:#181818;stroke-width:1.0;"/></g><!--link Farmac?utico to UC7--><g id="link_Farmac&#233;utico_UC7"><path d="M567.61,61.14 C641.11,86.82 781.37,135.84 854.69,161.47 " fill="none" id="Farmac&#233;utico-UC7" style="stroke:#181818;stroke-width:1.0;"/></g><!--link Administrador to UC5--><g id="link_Administrador_UC5"><path d="M1110,81.69 C1110,107.15 1110,139.8 1110,159.79 " fill="none" id="Administrador-UC5" style="stroke:#181818;stroke-width:1.0;"/></g><!--link Administrador to UC6--><g id="link_Administrador_UC6"><path d="M1159.63,70.08 C1212.51,97.34 1294.54,139.62 1338.58,162.32 " fill="none" id="Administrador-UC6" style="stroke:#181818;stroke-width:1.0;"/></g><!--link Administrador to UC7--><g id="link_Administrador_UC7"><path d="M1060.44,76.31 C1020.07,102.22 964.45,137.92 930.98,159.4 " fill="none" id="Administrador-UC7" style="stroke:#181818;stroke-width:1.0;"/></g><!--link UC1 to UC2--><g id="link_UC1_UC2"><path d="M164.07,179 C195.83,179 226.2,179 257.29,179 " fill="none" id="UC1-to-UC2" style="stroke:#181818;stroke-width:1.0;stroke-dasharray:7.0,7.0;"/><polygon fill="#181818" points="263.29,179,254.29,175,258.29,179,254.29,183,263.29,179" style="stroke:#181818;stroke-width:1.0;"/><text fill="#000000" font-family="sans-serif" font-size="13" lengthAdjust="spacing" textLength="63.0068" x="182.25" y="172.0669">&#171;include&#187;</text></g><!--link UC1 to UC4--><g id="link_UC1_UC4"><path d="M134.79,165.02 C218.28,142.54 382.84,102.59 438.5,120.5 C463.7,128.61 483.304,143.6372 498.644,157.8172 " fill="none" id="UC1-to-UC4" style="stroke:#181818;stroke-width:1.0;stroke-dasharray:7.0,7.0;"/><polygon fill="#181818" points="503.05,161.89,499.1563,152.8435,499.3784,158.496,493.7259,158.7181,503.05,161.89" style="stroke:#181818;stroke-width:1.0;"/><text fill="#000000" font-family="sans-serif" font-size="13" lengthAdjust="spacing" textLength="63.0068" x="374.5" y="124.5669">&#171;include&#187;</text></g><!--link UC4 to UC6--><g id="link_UC4_UC6"><path d="M574.04,166.48 C587.09,163.66 601.01,160.82 614,158.5 C762.16,132.02 800.36,110.06 950.5,120.5 C1078.58,129.41 1221.2015,152.4263 1302.3815,166.7663 " fill="none" id="UC4-to-UC6" style="stroke:#181818;stroke-width:1.0;stroke-dasharray:7.0,7.0;"/><polygon fill="#181818" points="1308.29,167.81,1300.123,162.3054,1303.3662,166.9402,1298.7314,170.1835,1308.29,167.81" style="stroke:#181818;stroke-width:1.0;"/><text fill="#000000" font-family="sans-serif" font-size="13" lengthAdjust="spacing" textLength="63.0068" x="886.5" y="124.5669">&#171;include&#187;</text></g><!--link UC5 to UC6--><g id="link_UC5_UC6"><path d="M1192.31,179 C1224,179 1254.07,179 1285.32,179 " fill="none" id="UC5-to-UC6" style="stroke:#181818;stroke-width:1.0;stroke-dasharray:7.0,7.0;"/><polygon fill="#181818" points="1291.32,179,1282.32,175,1286.32,179,1282.32,183,1291.32,179" style="stroke:#181818;stroke-width:1.0;"/><text fill="#000000" font-family="sans-serif" font-size="13" lengthAdjust="spacing" textLength="63.0068" x="1210.25" y="172.0669">&#171;include&#187;</text></g><!--SRC=[RP7FYi8m4CRlUOh1kuArhI1IaB8BUnD5xqCQPDWsMV9d3xwHp-6BcTRKMCnnlkytCrycoAtIKBSaf1KCX-eRTOVyVdEMk0hQhkb8ah4Q6wKPSqPmD09c1u4jNT6FKDsVnXcWWLEzZC1UAowC1_PuKS7EeltLaQL-9RVkrRvwdtyPjceu-uGZaAU0IO8Y4Zi_EeGyMiL_0r56ebRIkDPwu4V-zsiqZL7NZ8NZm7m-l6nIPenDhZL22J5BYQkKcAT47sJo1q-rI8bbIlJzFXWigZuAR62x9SbRruYgYaR-OUHFe_mmYgJn0000]--></g></svg>